<svg xmlns="http://www.w3.org/2000/svg" viewBox="0 0 220 220"><circle fill="#ABABAB" cx="110" cy="110" r="110"/><circle fill="#3A3E41" cx="110" cy="110" r="93.1"/><path fill="#838583" d="M166 80h-80v60h80c11 0 20-9 20-20v-20c0-11-9-20-20-20z"/><path fill="#595B5C" d="M156 80h-10c11 0 20 9 20 20v20c0 11-9 20-20 20h10c11 0 20-9 20-20v-20c0-11-9-20-20-20zM126 80h-10c11 0 20 9 20 20v20c0 11-9 20-20 20h10c11 0 20-9 20-20v-20c0-11-9-20-20-20z"/><path fill="#EAE8E6" d="M36 84h80v50h-80z"/><path fill="#DAD7D5" d="M36 90h80v10h-80z"/><path fill="#ABABAB" d="M106 80h-76v10h76c5.5 0 10 4.5 10 10v20c0 5.5-4.5 10-10 10h-76v10h76c11 0 20-9 20-20v-20c0-11-9-20-20-20z"/><path fill="#DAD7D5" d="M90 110h10v20h-10z"/><path fill="#595B5C" d="M70 110c-5.5 0-10 4.5-10 10v30l14-10 16 10v-30c0-5.5 4.5-10 10-10h-30z"/><path fill="#ABABAB" d="M75 120l1.4 4.4h4.6l-3.7 2.7 1.4 4.3-3.7-2.7-3.7 2.7 1.4-4.3-3.7-2.7h4.6z"/></svg>
