<svg xmlns="http://www.w3.org/2000/svg" xmlns:xlink="http://www.w3.org/1999/xlink" viewBox="0 0 220 220"><circle fill="#036A4D" cx="110" cy="110" r="110"/><circle fill="#2FA480" cx="110" cy="110" r="100"/><defs><circle id="a" cx="110" cy="110" r="100"/></defs><clipPath id="b"><use xlink:href="#a" overflow="visible"/></clipPath><path clip-path="url(#b)" fill="#248164" d="M39.3 180.7c18.1 18.1 43.1 29.3 70.7 29.3s52.6-11.2 70.7-29.3l-70.7-70.7-70.7 70.7zM10 110c0 9.9 1.5 19.5 4.1 28.6h191.7c2.7-9.1 4.1-18.6 4.1-28.6s-1.5-19.5-4.1-28.6h-191.7c-2.6 9.1-4.1 18.7-4.1 28.6z"/><path clip-path="url(#b)" fill="#71C398" d="M10 110c0 8.2 1 16.2 2.9 23.8h194.3c1.9-7.6 2.9-15.6 2.9-23.8 0-8.2-1-16.2-2.9-23.8h-194.3c-1.9 7.6-2.9 15.6-2.9 23.8z"/><circle fill="#71C398" cx="110" cy="110" r="65"/><circle fill="#036A4D" cx="110" cy="110" r="55"/><g fill="#2FA480"><path d="M196.3 110.6c.3-.3.3-.9 0-1.2l-11.8-11.8c-.2-.2-.4-.2-.6-.2-.2 0-.4.1-.6.2-.2.2-.2.4-.2.6v3.3c0 .2.1.4.2.6l7.9 7.9-7.9 7.9c-.2.2-.2.4-.2.6v3.3c0 .2.1.4.2.6.2.2.4.2.6.2.2 0 .4-.1.6-.2l11.8-11.8zM23.7 110.6c-.3-.3-.3-.9 0-1.2l11.8-11.8c.2-.2.4-.2.6-.2.2 0 .4.1.6.2.2.2.2.4.2.6v3.3c0 .2-.1.4-.2.6l-7.9 7.9 7.9 7.9c.2.2.2.4.2.6v3.3c0 .2-.1.4-.2.6-.2.2-.4.2-.6.2-.2 0-.4-.1-.6-.2l-11.8-11.8z"/></g><g fill="#C5E3C5"><path d="M70.9 45.3l-3.1 2.3-3.4-4.7-3.6 2.6 3.4 4.7-3.2 2.2-8.4-11.6 3.1-2.3 3.1 4.3 3.6-2.6-3-4.2 3.1-2.3 8.4 11.6zM79.9 40.8l-3.5 1.6-4.7-10.1-3.2 1.5-1.3-2.8 9.8-4.6 1.3 2.9-3.2 1.5 4.8 10zM91.5 36.9l-5.1-9.4h-.1c.5 1.7.9 3 1.1 3.9l1.4 6-3.3.8-3.1-13.9 5-1.1 5.1 9.2h.1l.6-10.5 5-1.1 3.1 13.9-3.5.8-1.4-6.1c-.1-.3-.1-.7-.2-1.1-.1-.4-.2-1.3-.5-2.9h-.1l-.6 10.6-3.5.9zM104.9 34.7l-.2-14.3 3.9-.1.2 11.2 5.5-.1v3.1l-9.4.2zM126.6 21.6l-7.3 13.8-3.3-.5 7.3-13.8 3.3.5zM136.5 27.4c-.9-.3-1.7-.1-2.4.5s-1.3 1.5-1.6 2.8c-.8 2.6-.2 4.2 1.8 4.9.6.2 1.2.3 1.8.3.6 0 1.2 0 1.9-.1l-.9 3.1c-1.3.2-2.7 0-4.1-.4-2.1-.6-3.5-1.7-4.2-3.2-.7-1.5-.8-3.4-.1-5.7.4-1.4 1.1-2.6 1.9-3.5.9-.9 1.9-1.5 3-1.8 1.2-.3 2.4-.2 3.8.2 1.5.4 2.8 1.2 3.9 2.2l-2 2.6-1.3-1.1c-.4-.4-.9-.6-1.5-.8zM150.4 41.1c-.4.8-1 1.4-1.7 1.8-.7.4-1.5.6-2.5.6-.9 0-1.9-.3-2.9-.8-.8-.4-1.5-.8-2-1.3-.5-.4-1-.9-1.5-1.5l1.5-3.1c.5.7 1 1.3 1.7 1.8.6.5 1.2 1 1.8 1.3.5.3.9.4 1.3.3.3-.1.6-.2.7-.5.1-.2.1-.4.1-.5 0-.2-.1-.4-.3-.6-.1-.2-.6-.8-1.3-1.7-.6-.8-1.1-1.5-1.3-2-.2-.6-.3-1.1-.3-1.7 0-.6.2-1.2.5-1.8.6-1.2 1.5-1.9 2.7-2.1 1.2-.2 2.5 0 4 .8 1.3.7 2.5 1.7 3.6 3l-2.4 2.1c-.9-1.1-1.8-1.9-2.7-2.4-.4-.2-.8-.3-1.1-.3-.3.1-.5.2-.6.4-.1.2-.1.5 0 .9.2.3.7 1 1.6 2.1.8 1 1.3 2 1.5 2.7.2.8.1 1.7-.4 2.5zM161.1 48.7c-.5.7-1.2 1.2-1.9 1.5s-1.6.3-2.5.1c-.9-.2-1.8-.6-2.7-1.3-.8-.6-1.4-1.1-1.8-1.6s-.8-1.1-1.2-1.8l2-2.8c.4.7.8 1.4 1.3 2.1s1 1.2 1.6 1.5c.5.3.9.5 1.2.5.3 0 .6-.1.8-.4.1-.2.2-.3.2-.5s-.1-.4-.2-.7c-.1-.3-.4-.9-1-1.9-.5-.9-.8-1.6-1-2.2-.1-.6-.2-1.2 0-1.7.1-.5.4-1.1.8-1.7.8-1.1 1.8-1.6 3-1.6s2.5.5 3.8 1.4c1.2.9 2.2 2 3 3.5l-2.7 1.7c-.7-1.3-1.5-2.2-2.2-2.8-.4-.3-.8-.4-1-.4s-.5.1-.7.3c-.2.2-.2.5-.1.9.1.3.5 1.1 1.2 2.4.7 1.2 1 2.2 1 3 0 .9-.3 1.7-.9 2.5z"/></g><g fill="#9ED4AE"><path d="M93.2 188.3c-.4 1.5-1.2 2.6-2.4 3.2s-2.5.6-4.2.1l-1-.3-1.3 4.6-3.7-1.1 3.9-13.7 4.7 1.4c1.7.5 2.9 1.3 3.6 2.3.7.9.8 2.1.4 3.5zm-6.7 0l.7.2c.6.2 1 .1 1.5-.1.4-.2.7-.6.9-1.2.3-.9-.1-1.5-1.1-1.8l-1-.3-1 3.2zM104.8 199.5l-.5-2.7-4.6-.4-1 2.6-4.2-.4 5.9-13.9 5.1.5 3.4 14.7-4.1-.4zm-.9-5.9l-.4-2.4c-.1-.5-.2-1.2-.3-2.1-.1-.8-.2-1.4-.2-1.8-.1.3-.3.9-.5 1.6-.2.7-.8 2.2-1.6 4.4l3 .3zM120.2 199.1l-3.8.4-1-11.1-3.5.3-.3-3.1 10.8-1 .3 3.1-3.5.3 1 11.1zM140.7 194.5l-3.7 1.1-1.6-5.6-4.3 1.2 1.6 5.6-3.7 1.1-4-13.7 3.7-1.1 1.5 5.1 4.3-1.2-1.5-5.1 3.7-1.1 4 13.7z"/></g><path fill="#9ED4AE" d="M145 80h-70c-2.8 0-5 2.2-5 5v10h80v-10c0-2.8-2.2-5-5-5z"/><path fill="#73C298" d="M75 145h70c2.8 0 5-2.2 5-5v-45h-80v45c0 2.8 2.2 5 5 5z"/><path fill="#71C398" d="M77.5 85h65v5h-65z"/><path fill="#248164" d="M77.5 100h32.5v10h-32.5z"/><path fill="#2FA480" d="M77.5 113.8h32.5v2.5h-32.5zM77.5 118.8h32.5v2.5h-32.5zM77.5 123.8h32.5v2.5h-32.5zM77.5 128.8h22.5v2.5h-22.5z"/><path fill="#9ED4AE" d="M120 164.1c5.3-1 10.3-2.7 15-5.1v-59h-15v64.1z"/><path fill="#2FA480" d="M135 100h5v45h-5z"/><path fill="#73C298" d="M130 104h5v2h-5zM130 109h5v2h-5zM130 114h5v2h-5zM127.5 119h7.5v2h-7.5zM130 124h5v2h-5zM130 129h5v2h-5zM130 134h5v2h-5zM127.5 139h7.5v2h-7.5zM130 144h5v2h-5zM130 149h5v2h-5zM130 154h5v2h-5z"/></svg>
