<svg xmlns="http://www.w3.org/2000/svg" viewBox="0 0 220 220"><circle fill="#F59831" cx="110" cy="110" r="110"/><circle fill="#9F4B24" cx="110" cy="110" r="90"/><path fill="#D57528" d="M150.1 29.4v80.1h2.9l-37.9 37.9v-127.3c-1.7-.1-3.4-.1-5.1-.1-1.6 0-3.3 0-4.9.1v127.4l-37.9-37.9h2.9v-80.3c-3.5 1.7-6.8 3.6-10 5.8v74.5l-3.5 3.5 48.5 48.5v38.2c1.6.1 3.2.1 4.9.1l5.1-.1v-38.2l48.5-48.5-3.5-3.5v-74.4c-3.2-2.1-6.5-4-10-5.8z"/><circle fill="#F59831" cx="110.1" cy="64.6" r="25"/><path fill="#D57528" d="M122.1 42.6c1.9 3.6 3 7.6 3 12 0 13.8-11.2 25-25 25-4.3 0-8.4-1.1-12-3 4.2 7.8 12.5 13 22 13 13.8 0 25-11.2 25-25 0-9.5-5.2-17.8-13-22z"/><circle fill="#F59831" cx="110.1" cy="154.6" r="25"/><path fill="#D57528" d="M122.1 132.6c1.9 3.6 3 7.6 3 12 0 13.8-11.2 25-25 25-4.3 0-8.4-1.1-12-3 4.2 7.8 12.5 13 22 13 13.8 0 25-11.2 25-25 0-9.5-5.2-17.8-13-22z"/><circle fill="#F59831" cx="65.1" cy="114.6" r="25"/><path fill="#D57528" d="M77.1 92.6c1.9 3.6 3 7.6 3 12 0 13.8-11.2 25-25 25-4.3 0-8.4-1.1-12-3 4.2 7.8 12.5 13 22 13 13.8 0 25-11.2 25-25 0-9.5-5.2-17.8-13-22z"/><circle fill="#F59831" cx="155.1" cy="114.6" r="25"/><path fill="#D57528" d="M167.1 92.6c1.9 3.6 3 7.6 3 12 0 13.8-11.2 25-25 25-4.3 0-8.4-1.1-12-3 4.2 7.8 12.5 13 22 13 13.8 0 25-11.2 25-25 0-9.5-5.2-17.8-13-22z"/></svg>
