<svg xmlns="http://www.w3.org/2000/svg" viewBox="0 0 110 110"><circle fill="#30A480" cx="55" cy="55" r="55"/><path fill="#71C297" d="M55 0c-30.4 0-55 24.6-55 55 0 25.2 16.9 46.4 40 52.9v-10.5c-17.5-6.1-30-22.8-30-42.4 0-24.9 20.1-45 45-45s45 20.1 45 45c0 19.6-12.5 36.3-30 42.4v-37.5h-15v50.1c30.4 0 55-24.6 55-55s-24.6-55-55-55z"/><path fill="#30A480" d="M70 59.9v37.5c17.5-6.2 30-22.8 30-42.4 0-24.9-20.1-45-45-45l15 49.9zM49 29.9l6-19.9c-24.9 0-45 20.1-45 45 0 19.6 12.5 36.3 30 42.4v-37.5l9-30z"/><path fill="#9DD3AD" d="M55 59.9h-15v48c4.8 1.3 9.8 2.1 15 2.1v-50.1z"/><path fill="#71C297" d="M49 29.9l-9 30h15v-30z"/><path fill="#228063" d="M49 29.9h6v30h15l-15-49.9z"/></svg>
