<?xml version="1.0" encoding="utf-8"?>
<!-- Generator: Adobe Illustrator 16.0.0, SVG Export Plug-In . SVG Version: 6.00 Build 0)  -->
<!DOCTYPE svg PUBLIC "-//W3C//DTD SVG 1.1//EN" "http://www.w3.org/Graphics/SVG/1.1/DTD/svg11.dtd">
<svg version="1.1" id="Layer_1" xmlns="http://www.w3.org/2000/svg" xmlns:xlink="http://www.w3.org/1999/xlink" x="0px" y="0px"
	 width="600px" height="350px" viewBox="0 0 600 350" enable-background="new 0 0 600 350" xml:space="preserve">
<path fill-rule="evenodd" clip-rule="evenodd" fill="#7BC3E4" d="M439.309,25.626h45.722c2.052,0,3.722,2.371,3.722,5.284v281.834
	c0,2.914-1.67,5.283-3.722,5.283h-45.722c-2.051,0-3.721-2.369-3.721-5.283V30.91C435.588,27.997,437.258,25.626,439.309,25.626z"/>
<path fill-rule="evenodd" clip-rule="evenodd" fill="#6DB9E0" d="M461.44,25.626h-22.132c-2.051,0-3.721,2.371-3.721,5.284v281.834
	c0,2.914,1.67,5.283,3.721,5.283h22.132V25.626z"/>
<path fill-rule="evenodd" clip-rule="evenodd" fill="#7BC3E4" d="M4.694,25.626h419.464c1.614,0,2.923,1.308,2.923,2.924v286.554
	c0,1.617-1.309,2.924-2.923,2.924H4.694c-1.617,0-2.924-1.307-2.924-2.924V28.55C1.77,26.934,3.078,25.626,4.694,25.626z"/>
<path fill-rule="evenodd" clip-rule="evenodd" fill="#6DB9E0" d="M424.158,25.626c1.614,0,2.923,1.308,2.923,2.924v286.554
	c0,1.617-1.309,2.924-2.923,2.924H4.694c-1.617,0-2.924-1.307-2.924-2.924L424.158,25.626z"/>
<path fill-rule="evenodd" clip-rule="evenodd" fill="#FCF8F1" d="M10.276,63.904v23.009V301.44v5.275
	c0,1.551,1.254,2.806,2.807,2.806H415.77c1.551,0,2.806-1.255,2.806-2.806v-5.275V86.913V63.904H10.276z"/>
<path fill-rule="evenodd" clip-rule="evenodd" fill="#F8EFDE" d="M13.945,35.195h91.548c1.436,0,2.605,1.17,2.605,2.605v13.928
	c0,1.436-1.17,2.605-2.605,2.605H13.945c-1.436,0-2.605-1.169-2.605-2.605V37.801C11.339,36.365,12.509,35.195,13.945,35.195z"/>
<path fill-rule="evenodd" clip-rule="evenodd" fill="#FCF8F1" d="M60.25,54.334h45.242c1.436,0,2.605-1.169,2.605-2.605V37.801
	c0-1.436-1.17-2.605-2.605-2.605H60.25V54.334z"/>
<path fill-rule="evenodd" clip-rule="evenodd" fill="#7BC3E4" d="M499.119,25.626h90.91c2.787,0,5.051,1.69,5.051,3.774v284.854
	c0,2.083-2.264,3.773-5.051,3.773h-90.91c-2.785,0-5.051-1.69-5.051-3.773V29.4C494.068,27.316,496.334,25.626,499.119,25.626z"/>
<path fill-rule="evenodd" clip-rule="evenodd" fill="#6DB9E0" d="M544.055,25.626h-44.946c-2.786,0-5.054,1.69-5.054,3.774v284.854
	c0,2.083,2.268,3.773,5.054,3.773h44.946V25.626z"/>
<rect x="512.145" y="84.106" fill-rule="evenodd" clip-rule="evenodd" fill="#FCF8F1" width="62.887" height="14.886"/>
<ellipse fill-rule="evenodd" clip-rule="evenodd" fill="#FCF8F1" cx="407.932" cy="44.765" rx="5.327" ry="5.316"/>
<path fill-rule="evenodd" clip-rule="evenodd" fill="#FCF8F1" d="M382.638,44.765c0-2.935,2.38-5.316,5.326-5.316
	c2.945,0,5.327,2.382,5.327,5.316s-2.382,5.316-5.327,5.316C385.018,50.081,382.638,47.699,382.638,44.765z"/>
<rect x="512.145" y="84.106" fill-rule="evenodd" clip-rule="evenodd" fill="#F8EFDE" width="31.827" height="14.886"/>
<rect x="512.145" y="238.281" fill-rule="evenodd" clip-rule="evenodd" fill="#FCF8F1" width="63.258" height="8.506"/>
<rect x="512.871" y="211.699" fill-rule="evenodd" clip-rule="evenodd" fill="#F8EFDE" width="11.568" height="8.506"/>
<rect x="529.684" y="211.699" fill-rule="evenodd" clip-rule="evenodd" fill="#F8EFDE" width="11.57" height="8.506"/>
<rect x="546.497" y="211.699" fill-rule="evenodd" clip-rule="evenodd" fill="#FCF8F1" width="11.567" height="8.506"/>
<rect x="563.31" y="211.699" fill-rule="evenodd" clip-rule="evenodd" fill="#FCF8F1" width="11.568" height="8.506"/>
<rect x="523.78" y="256.357" fill-rule="evenodd" clip-rule="evenodd" fill="#FCF8F1" width="51.622" height="3.189"/>
<rect x="523.78" y="269.117" fill-rule="evenodd" clip-rule="evenodd" fill="#FCF8F1" width="51.622" height="3.189"/>
<rect x="523.78" y="281.876" fill-rule="evenodd" clip-rule="evenodd" fill="#FCF8F1" width="51.622" height="3.189"/>
<rect x="523.78" y="294.635" fill-rule="evenodd" clip-rule="evenodd" fill="#FCF8F1" width="51.622" height="3.19"/>
<rect x="446.22" y="293.572" fill-rule="evenodd" clip-rule="evenodd" fill="#F8EFDE" width="16.056" height="3.189"/>
<rect x="446.22" y="282.938" fill-rule="evenodd" clip-rule="evenodd" fill="#F8EFDE" width="16.056" height="3.19"/>
<rect x="462.275" y="293.572" fill-rule="evenodd" clip-rule="evenodd" fill="#FCF8F1" width="16.685" height="3.189"/>
<rect x="462.275" y="282.938" fill-rule="evenodd" clip-rule="evenodd" fill="#FCF8F1" width="16.685" height="3.19"/>
<rect x="512.145" y="42.638" fill-rule="evenodd" clip-rule="evenodd" fill="#FCF8F1" width="61.67" height="3.19"/>
<rect x="446.22" y="43.701" fill-rule="evenodd" clip-rule="evenodd" fill="#F8EFDE" width="16.481" height="3.19"/>
<path fill-rule="evenodd" clip-rule="evenodd" fill="#F8EFDE" d="M512.145,258.483c0-1.765,1.424-3.189,3.189-3.189
	c1.765,0,3.189,1.425,3.189,3.189c0,1.766-1.425,3.189-3.189,3.189C513.568,261.673,512.145,260.249,512.145,258.483z"/>
<path fill-rule="evenodd" clip-rule="evenodd" fill="#F8EFDE" d="M512.145,270.18c0-1.765,1.424-3.19,3.189-3.19
	c1.765,0,3.189,1.426,3.189,3.19c0,1.766-1.425,3.19-3.189,3.19C513.568,273.37,512.145,271.945,512.145,270.18z"/>
<path fill-rule="evenodd" clip-rule="evenodd" fill="#F8EFDE" d="M512.145,282.938c0-1.765,1.424-3.189,3.189-3.189
	c1.765,0,3.189,1.425,3.189,3.189c0,1.766-1.425,3.19-3.189,3.19C513.568,286.129,512.145,284.704,512.145,282.938z"/>
<path fill-rule="evenodd" clip-rule="evenodd" fill="#F8EFDE" d="M512.145,295.698c0-1.765,1.424-3.189,3.189-3.189
	c1.765,0,3.189,1.425,3.189,3.189c0,1.766-1.425,3.189-3.189,3.189C513.568,298.888,512.145,297.464,512.145,295.698z"/>
<line fill-rule="evenodd" clip-rule="evenodd" fill="none" stroke="#FFFFFF" stroke-linecap="round" stroke-linejoin="round" stroke-miterlimit="10" x1="434.337" y1="63.904" x2="489.815" y2="63.904"/>
<line fill-rule="evenodd" clip-rule="evenodd" fill="none" stroke="#FFFFFF" stroke-linecap="round" stroke-linejoin="round" stroke-miterlimit="10" x1="494.068" y1="63.904" x2="598.27" y2="63.904"/>
<rect x="512.145" y="102.182" fill-rule="evenodd" clip-rule="evenodd" fill="#F8EFDE" width="31.858" height="2.127"/>
<rect x="512.343" y="134.08" fill-rule="evenodd" clip-rule="evenodd" fill="#FCF8F1" width="47.158" height="2.127"/>
<rect x="512.145" y="187.243" fill-rule="evenodd" clip-rule="evenodd" fill="#FCF8F1" width="62.887" height="8.507"/>
<rect x="512.145" y="200.003" fill-rule="evenodd" clip-rule="evenodd" fill="#FCF8F1" width="62.887" height="2.127"/>
<rect x="512.145" y="116.005" fill-rule="evenodd" clip-rule="evenodd" fill="#FCF8F1" width="62.887" height="14.885"/>
<rect x="512.145" y="147.903" fill-rule="evenodd" clip-rule="evenodd" fill="#FCF8F1" width="62.887" height="14.886"/>
<rect x="511.983" y="102.182" fill-rule="evenodd" clip-rule="evenodd" fill="#F8EFDE" width="36.387" height="2.127"/>
<rect x="512.48" y="165.979" fill-rule="evenodd" clip-rule="evenodd" fill="#F8EFDE" width="35.89" height="2.126"/>
<rect x="462.701" y="43.701" fill-rule="evenodd" clip-rule="evenodd" fill="#FCF8F1" width="15.418" height="3.19"/>
<path fill-rule="evenodd" clip-rule="evenodd" fill="#FCF8F1" d="M462.701,222.907c-0.291-0.015-0.577-0.043-0.872-0.043
	c-9.015,0-16.321,7.326-16.321,16.364c0,9.027,7.307,16.352,16.321,16.352c0.295,0,0.581-0.027,0.872-0.043
	c8.61-0.457,15.448-7.577,15.448-16.309C478.149,230.485,471.312,223.364,462.701,222.907z"/>
<path fill-rule="evenodd" clip-rule="evenodd" fill="#F8EFDE" d="M461.639,222.872c-8.926,0.104-16.131,7.383-16.131,16.356
	c0,8.963,7.205,16.239,16.131,16.344V222.872z"/>
<path fill-rule="evenodd" clip-rule="evenodd" fill="#FCF8F1" d="M462.701,174.656c-0.291-0.016-0.577-0.044-0.872-0.044
	c-9.015,0-16.321,7.326-16.321,16.363c0,9.027,7.307,16.354,16.321,16.354c0.295,0,0.581-0.028,0.872-0.045
	c8.61-0.457,15.448-7.575,15.448-16.309C478.149,182.233,471.312,175.112,462.701,174.656z"/>
<path fill-rule="evenodd" clip-rule="evenodd" fill="#F8EFDE" d="M461.639,174.621c-8.926,0.104-16.131,7.382-16.131,16.354
	c0,8.964,7.205,16.239,16.131,16.344V174.621z"/>
<path fill-rule="evenodd" clip-rule="evenodd" fill="#FCF8F1" d="M462.701,126.416c-0.291-0.015-0.577-0.044-0.872-0.044
	c-9.015,0-16.321,7.327-16.321,16.365c0,9.027,7.307,16.353,16.321,16.353c0.295,0,0.581-0.028,0.872-0.044
	c8.61-0.457,15.448-7.576,15.448-16.309C478.149,133.993,471.312,126.873,462.701,126.416z"/>
<path fill-rule="evenodd" clip-rule="evenodd" fill="#F8EFDE" d="M461.639,126.381c-8.926,0.104-16.131,7.382-16.131,16.355
	c0,8.963,7.205,16.24,16.131,16.344V126.381z"/>
<path fill-rule="evenodd" clip-rule="evenodd" fill="#FCF8F1" d="M462.701,78.165c-0.291-0.016-0.577-0.044-0.872-0.044
	c-9.015,0-16.321,7.327-16.321,16.364c0,9.028,7.307,16.354,16.321,16.354c0.295,0,0.581-0.028,0.872-0.045
	c8.61-0.457,15.448-7.576,15.448-16.309C478.149,85.741,471.312,78.622,462.701,78.165z"/>
<path fill-rule="evenodd" clip-rule="evenodd" fill="#F8EFDE" d="M461.639,78.129c-8.926,0.104-16.131,7.381-16.131,16.355
	c0,8.963,7.205,16.24,16.131,16.344V78.129z"/>
<path fill="#BDDEBF" d="M461.639,231.237v15.97c3.062,0,5.546-2.483,5.546-5.547C467.185,238.598,461.639,231.237,461.639,231.237z"
	/>
<polygon fill="#BDDEBF" points="461.639,186.108 461.639,195.646 461.927,195.646 465.287,199.025 465.287,195.646 468.281,195.646 
	468.281,186.108 "/>
<polygon fill="#BDDEBF" points="461.639,148.814 470.426,140.026 467.946,137.547 461.639,143.856 "/>
<path fill="#BDDEBF" d="M461.639,87.828v14.704h3.426v-0.735c-0.222-0.007-0.531-0.052-0.928-0.135
	c-0.396-0.083-0.659-0.148-0.783-0.197c-0.241-0.104-0.409-0.25-0.507-0.44c-0.098-0.19-0.146-0.399-0.146-0.627V88.636h0.603
	c0.276,0,0.579,0.007,0.903,0.021c0.326,0.013,0.597,0.035,0.81,0.062c0.229,0.035,0.467,0.171,0.712,0.41
	c0.246,0.238,0.472,0.517,0.682,0.834c0.199,0.304,0.381,0.627,0.544,0.969c0.164,0.341,0.276,0.637,0.339,0.886h0.715v-3.99
	H461.639z"/>
<path fill-rule="evenodd" clip-rule="evenodd" fill="#ACC9AC" d="M456.093,241.66c0,3.063,2.482,5.547,5.546,5.547v-15.97
	C461.639,231.237,456.093,238.598,456.093,241.66z"/>
<rect x="454.878" y="186.108" fill-rule="evenodd" clip-rule="evenodd" fill="#ACC9AC" width="6.761" height="9.538"/>
<polygon fill-rule="evenodd" clip-rule="evenodd" fill="#ACC9AC" points="461.639,143.856 461.163,144.332 457.355,140.525 
	454.878,143.005 461.152,149.277 461.165,149.265 461.175,149.277 461.639,148.814 "/>
<path fill-rule="evenodd" clip-rule="evenodd" fill="#ACC9AC" d="M455.19,91.817h0.725c0.062-0.229,0.172-0.517,0.332-0.865
	c0.157-0.349,0.341-0.679,0.548-0.99c0.208-0.311,0.435-0.589,0.679-0.834c0.245-0.245,0.482-0.381,0.711-0.41
	c0.289-0.034,0.594-0.056,0.911-0.067c0.318-0.01,0.584-0.016,0.798-0.016h0.601v11.854c0,0.284-0.053,0.509-0.16,0.679
	s-0.274,0.299-0.503,0.389c-0.151,0.062-0.425,0.114-0.824,0.155c-0.396,0.042-0.691,0.069-0.885,0.083v0.735h3.517V87.828h-6.448
	V91.817z"/>
<rect x="512.145" y="187.243" fill-rule="evenodd" clip-rule="evenodd" fill="#F8EFDE" width="31.827" height="8.507"/>
<rect x="512.145" y="238.281" fill-rule="evenodd" clip-rule="evenodd" fill="#F8EFDE" width="31.851" height="8.506"/>
<rect x="523.84" y="256.357" fill-rule="evenodd" clip-rule="evenodd" fill="#F8EFDE" width="20.253" height="3.189"/>
<rect x="523.84" y="269.117" fill-rule="evenodd" clip-rule="evenodd" fill="#F8EFDE" width="20.253" height="3.189"/>
<rect x="523.84" y="281.876" fill-rule="evenodd" clip-rule="evenodd" fill="#F8EFDE" width="20.253" height="3.189"/>
<rect x="523.84" y="294.635" fill-rule="evenodd" clip-rule="evenodd" fill="#F8EFDE" width="20.253" height="3.19"/>
<rect x="512.145" y="200.003" fill-rule="evenodd" clip-rule="evenodd" fill="#F8EFDE" width="31.827" height="2.127"/>
<rect x="512.145" y="116.005" fill-rule="evenodd" clip-rule="evenodd" fill="#F8EFDE" width="31.827" height="14.885"/>
<rect x="512.145" y="134.08" fill-rule="evenodd" clip-rule="evenodd" fill="#F8EFDE" width="31.827" height="2.127"/>
<rect x="512.145" y="147.903" fill-rule="evenodd" clip-rule="evenodd" fill="#F8EFDE" width="31.827" height="14.886"/>
<rect x="512.145" y="165.979" fill-rule="evenodd" clip-rule="evenodd" fill="#F8EFDE" width="31.858" height="2.126"/>
</svg>
