<?xml version="1.0" encoding="utf-8"?>
<!-- Generator: Adobe Illustrator 16.0.0, SVG Export Plug-In . SVG Version: 6.00 Build 0)  -->
<!DOCTYPE svg PUBLIC "-//W3C//DTD SVG 1.1//EN" "http://www.w3.org/Graphics/SVG/1.1/DTD/svg11.dtd">
<svg version="1.1" id="Untitled-Page_x25_201" xmlns="http://www.w3.org/2000/svg" xmlns:xlink="http://www.w3.org/1999/xlink"
	 x="0px" y="0px" width="175.52px" height="1px" viewBox="209.525 64.666 175.52 1"
	 enable-background="new 209.525 64.666 175.52 1" xml:space="preserve">
<path fill="none" d="z"/>
<path fill="none" d="z"/>
<g>
	<g>
		<path fill="#666666" d="M385.045,65.666h-5.662v-1h5.662V65.666z M376.553,65.666h-5.662v-1h5.662V65.666z M368.059,65.666h-5.662
			v-1h5.662V65.666z M359.566,65.666h-5.662v-1h5.662V65.666z M351.074,65.666h-5.662v-1h5.662V65.666z M342.58,65.666h-5.662v-1
			h5.662V65.666z M334.088,65.666h-5.662v-1h5.662V65.666z M325.596,65.666h-5.662v-1h5.662V65.666z M317.102,65.666h-5.662v-1
			h5.662V65.666z M308.609,65.666h-5.662v-1h5.662V65.666z M300.117,65.666h-5.662v-1h5.662V65.666z M291.623,65.666h-5.662v-1
			h5.662V65.666z M283.131,65.666h-5.662v-1h5.662V65.666z M274.637,65.666h-5.662v-1h5.662V65.666z M266.145,65.666h-5.662v-1
			h5.662V65.666z M257.651,65.666h-5.662v-1h5.662V65.666z M249.158,65.666h-5.662v-1h5.662V65.666z M240.666,65.666h-5.662v-1
			h5.662V65.666z M232.173,65.666h-5.662v-1h5.662V65.666z M223.68,65.666h-5.662v-1h5.662V65.666z M215.188,65.666h-5.662v-1h5.662
			V65.666z"/>
	</g>
</g>
</svg>
