<?xml version="1.0" standalone="no"?><!-- Generator: Adobe Fireworks CS6, Export SVG Extension by Aaron Beall (http://fireworks.abeall.com) . Version: 0.6.1  --><!DOCTYPE svg PUBLIC "-//W3C//DTD SVG 1.1//EN" "http://www.w3.org/Graphics/SVG/1.1/DTD/svg11.dtd"><svg id="Untitled-Page%201" viewBox="0 0 143 20" style="background-color:#ffffff00" version="1.1"	xmlns="http://www.w3.org/2000/svg" xmlns:xlink="http://www.w3.org/1999/xlink" xml:space="preserve"	x="0px" y="0px" width="143px" height="20px">	<g id="Layer%201">		<g>			<path d="M 17 20 L 0 20 L 0 0 L 17 0 L 17 20 Z" fill="#f6c1a5"/>			<path d="M 7.894 15.5448 L 2.3642 15.5448 L 2.3642 2.2665 L 7.894 2.2665 L 7.894 15.5448 Z" fill="#fcf8f1"/>			<path d="M 14.6874 10.4948 L 9.492 10.4948 L 9.492 2.2655 L 14.6874 2.2655 L 14.6874 10.4948 Z" fill="#fcf8f1"/>			<path d="M 14.6874 15.5448 L 9.492 15.5448 L 9.492 11.9417 L 14.6874 11.9417 L 14.6874 15.5448 Z" fill="#fcf8f1"/>			<path d="M 14.6874 18.6885 L 2.3642 18.6885 L 2.3642 16.8866 L 14.6874 16.8866 L 14.6874 18.6885 Z" fill="#fcf8f1"/>		</g>		<g>			<path d="M 59 20 L 42 20 L 42 0 L 59 0 L 59 20 Z" fill="#f6c1a5"/>			<path d="M 49.894 15.5448 L 44.3642 15.5448 L 44.3642 2.2665 L 49.894 2.2665 L 49.894 15.5448 Z" fill="#fcf8f1"/>			<path d="M 56.6874 10.4948 L 51.492 10.4948 L 51.492 2.2655 L 56.6874 2.2655 L 56.6874 10.4948 Z" fill="#fcf8f1"/>			<path d="M 56.6874 15.5448 L 51.492 15.5448 L 51.492 11.9417 L 56.6874 11.9417 L 56.6874 15.5448 Z" fill="#fcf8f1"/>			<path d="M 56.6874 18.6885 L 44.3642 18.6885 L 44.3642 16.8866 L 56.6874 16.8866 L 56.6874 18.6885 Z" fill="#fcf8f1"/>		</g>		<g>			<path d="M 101 20 L 84 20 L 84 0 L 101 0 L 101 20 Z" fill="#f6c1a5"/>			<path d="M 91.894 15.5448 L 86.3642 15.5448 L 86.3642 2.2665 L 91.894 2.2665 L 91.894 15.5448 Z" fill="#fcf8f1"/>			<path d="M 98.6874 10.4948 L 93.492 10.4948 L 93.492 2.2655 L 98.6874 2.2655 L 98.6874 10.4948 Z" fill="#fcf8f1"/>			<path d="M 98.6874 15.5448 L 93.492 15.5448 L 93.492 11.9417 L 98.6874 11.9417 L 98.6874 15.5448 Z" fill="#fcf8f1"/>			<path d="M 98.6874 18.6885 L 86.3642 18.6885 L 86.3642 16.8866 L 98.6874 16.8866 L 98.6874 18.6885 Z" fill="#fcf8f1"/>		</g>		<g>			<path d="M 143 20 L 126 20 L 126 0 L 143 0 L 143 20 Z" fill="#f6c1a5"/>			<path d="M 133.894 15.5448 L 128.3642 15.5448 L 128.3642 2.2665 L 133.894 2.2665 L 133.894 15.5448 Z" fill="#fcf8f1"/>			<path d="M 140.6874 10.4948 L 135.492 10.4948 L 135.492 2.2655 L 140.6874 2.2655 L 140.6874 10.4948 Z" fill="#fcf8f1"/>			<path d="M 140.6874 15.5448 L 135.492 15.5448 L 135.492 11.9417 L 140.6874 11.9417 L 140.6874 15.5448 Z" fill="#fcf8f1"/>			<path d="M 140.6874 18.6885 L 128.3642 18.6885 L 128.3642 16.8866 L 140.6874 16.8866 L 140.6874 18.6885 Z" fill="#fcf8f1"/>		</g>	</g></svg>