<?xml version="1.0" encoding="utf-8"?>
<!-- Generator: Adobe Illustrator 16.0.0, SVG Export Plug-In . SVG Version: 6.00 Build 0)  -->
<!DOCTYPE svg PUBLIC "-//W3C//DTD SVG 1.1//EN" "http://www.w3.org/Graphics/SVG/1.1/DTD/svg11.dtd">
<svg version="1.1" id="Layer_1" xmlns="http://www.w3.org/2000/svg" xmlns:xlink="http://www.w3.org/1999/xlink" x="0px" y="0px"
	 width="131.355px" height="157.691px" viewBox="0 0 131.355 157.691" enable-background="new 0 0 131.355 157.691"
	 xml:space="preserve">
<g>
	<path fill="#FFCE9E" d="M58.121,48.985c3.255-2.963,8.369-2.715,11.432,0.562c3.076,3.289,2.951,8.392-0.303,11.41
		c-3.278,3.03-8.448,2.782-11.524-0.562C54.663,57.072,54.855,51.969,58.121,48.985z"/>
	<path fill="#48A9D8" d="M63.065,0h1.127v29.286h-1.127V0z"/>
	<path fill="#7BC3E4" d="M61.218,25.906L46.17,57.444h33.791L65.903,25.906H61.218z"/>
	<polygon fill="#48A9D8" points="61.218,25.906 73.203,57.444 79.961,57.444 65.903,25.906 	"/>
	<linearGradient id="SVGID_1_" gradientUnits="userSpaceOnUse" x1="65.6785" y1="157.6912" x2="65.6785" y2="57.4446">
		<stop  offset="0" style="stop-color:#FFFFFF;stop-opacity:0"/>
		<stop  offset="0.0517" style="stop-color:#FEF8F1;stop-opacity:0.0926"/>
		<stop  offset="0.1647" style="stop-color:#FDECD8;stop-opacity:0.2949"/>
		<stop  offset="0.2832" style="stop-color:#FDE3C7;stop-opacity:0.5071"/>
		<stop  offset="0.4098" style="stop-color:#FCDEBC;stop-opacity:0.7338"/>
		<stop  offset="0.5585" style="stop-color:#FCDCB9"/>
	</linearGradient>
	<path opacity="0.5" fill="url(#SVGID_1_)" enable-background="new    " d="M131.356,157.691L74.093,57.444H50.901L0,157.691
		H131.356z"/>
</g>
</svg>
