<?xml version="1.0" encoding="utf-8"?>
<!-- Generator: Adobe Illustrator 16.0.0, SVG Export Plug-In . SVG Version: 6.00 Build 0)  -->
<!DOCTYPE svg PUBLIC "-//W3C//DTD SVG 1.1//EN" "http://www.w3.org/Graphics/SVG/1.1/DTD/svg11.dtd">
<svg version="1.1" id="Layer_1" xmlns="http://www.w3.org/2000/svg" xmlns:xlink="http://www.w3.org/1999/xlink" x="0px" y="0px"
	 width="600px" height="295.5px" viewBox="0 0 600 295.5" enable-background="new 0 0 600 295.5" xml:space="preserve">
<path fill="#4FACDA" d="M104.576,129.882h145.301c3.108,0,5.632,2.523,5.632,5.632v84.477c0,3.108-2.523,5.632-5.632,5.632H104.576
	c-3.109,0-5.632-2.523-5.632-5.632v-84.477C98.944,132.405,101.467,129.882,104.576,129.882z"/>
<path fill="#F8EFDE" d="M11.03,230.129H594.6c0.586,0,1.07,0.495,1.07,1.092v12.459c0,0.598-0.484,1.092-1.07,1.092H11.03
	c-0.585,0-1.069-0.494-1.069-1.092v-12.459C9.961,230.624,10.445,230.129,11.03,230.129L11.03,230.129z"/>
<path fill="#7BC3E4" d="M10.625,22.877h584.381c0.372,0,0.664,0.304,0.664,0.676v7.659c0,0.372-0.292,0.676-0.664,0.676H10.625
	c-0.372,0-0.665-0.304-0.665-0.676v-7.659C9.961,23.182,10.253,22.877,10.625,22.877z"/>
<path fill="#E3D9C9" d="M21.889,244.771h561.854c0.372,0,0.664,0.146,0.664,0.338v3.83c0,0.19-0.292,0.338-0.664,0.338H21.889
	c-0.372,0-0.665-0.146-0.665-0.338v-3.83C21.225,244.918,21.517,244.771,21.889,244.771L21.889,244.771z"/>
<path fill="#F8EFDE" d="M44.417,249.277h516.799c0.372,0,0.664,0.676,0.664,1.521v17.233c0,0.845-0.292,1.521-0.664,1.521H44.417
	c-0.372,0-0.665-0.676-0.665-1.521v-17.233C43.751,249.953,44.044,249.277,44.417,249.277z"/>
<rect x="300.562" y="37.52" fill="#48A9D8" width="1.127" height="33.791"/>
<rect x="302.816" y="37.52" fill="#48A9D8" width="1.125" height="33.791"/>
<g>
	<path fill="#7BC3E4" d="M298.671,78.835c-1.982-1.983-1.982-5.181,0-7.164c1.981-1.982,5.183-1.982,7.164,0
		c1.981,1.983,1.981,5.181,0,7.164C303.854,80.817,300.652,80.817,298.671,78.835z"/>
	<path fill="#48A9D8" d="M299.211,79.309c1.994,1.498,4.821,1.329,6.624-0.473c1.801-1.802,1.972-4.63,0.474-6.624L299.211,79.309z"
		/>
</g>
<path fill="#4FACDA" d="M352.376,129.882h145.302c3.108,0,5.632,2.523,5.632,5.632v84.477c0,3.108-2.522,5.632-5.632,5.632H352.376
	c-3.108,0-5.632-2.523-5.632-5.632v-84.477C346.744,132.405,349.268,129.882,352.376,129.882z"/>
<path fill="#FCF8F1" d="M355.755,138.893h138.543v74.339H355.755V138.893z"/>
<path opacity="0.6" fill="#F8EFDE" enable-background="new    " d="M494.298,138.893v74.339H355.755L494.298,138.893z"/>
<path fill="#4FACDA" d="M333.229,221.118H515.7c2.489,0,4.506,2.016,4.506,4.505c0,2.488-2.017,4.506-4.506,4.506H333.229
	c-2.489,0-4.506-2.018-4.506-4.506C328.723,223.134,330.738,221.118,333.229,221.118z"/>
<path fill="#7BC3E4" d="M333.229,221.118c-2.489,0-4.506,2.016-4.506,4.505h191.482c0-2.489-2.018-4.505-4.506-4.505H333.229
	L333.229,221.118z"/>
<path fill="#F7C2A6" d="M427.854,186.426h-9.201v-6.882h9.201c2.23,0,3.505,1.554,3.505,3.447
	C431.357,185.052,430.027,186.426,427.854,186.426z M428.045,170.894h-9.394v-7.446h9.394c1.971,0,3.312,1.543,3.312,3.683
	C431.357,169.35,430.016,170.894,428.045,170.894z M430.241,194.085c7.321,0,10.981-4.438,10.981-9.721
	c0-4.82-3.152-8.854-7.164-9.506c4.292-0.822,7.164-4.168,7.164-9.732c0-4.798-3.547-9.337-10.981-9.337h-21.366v38.296H430.241
	L430.241,194.085z"/>
<path fill="#7BC3E4" d="M293.828,31.888c0.282,4.404,3.953,7.885,8.425,7.885s8.144-3.48,8.426-7.885H293.828z"/>
<path fill="#48A9D8" d="M293.828,31.888l15.183,4.506l1.669-4.506H293.828z"/>
<path fill="#FCF8F1" d="M107.955,138.893h138.543v74.339H107.955V138.893z"/>
<path opacity="0.6" fill="#F8EFDE" enable-background="new    " d="M246.498,138.893v74.339H107.955L246.498,138.893z"/>
<path fill="#4FACDA" d="M85.427,221.118h182.471c2.489,0,4.506,2.016,4.506,4.505c0,2.488-2.017,4.506-4.506,4.506H85.427
	c-2.489,0-4.505-2.018-4.505-4.506C80.922,223.134,82.938,221.118,85.427,221.118z"/>
<path fill="#7BC3E4" d="M85.427,221.118c-2.489,0-4.505,2.016-4.505,4.505h191.482c0-2.489-2.017-4.505-4.506-4.505H85.427z"/>
<path fill="#BDDEBF" d="M181.979,179.623h-9.563l4.787-14.159L181.979,179.623z M197.433,194.018l-14.17-38.161h-12.131
	l-14.113,38.161h10.959l1.858-5.744h14.778l1.858,5.744H197.433z"/>
</svg>
