<svg xmlns="http://www.w3.org/2000/svg" xmlns:xlink="http://www.w3.org/1999/xlink" viewBox="0 0 369 207" enable-background="new 0 0 369 207"><rect x="292.5" y="28.3" fill="#2FA480" width="4.5" height="35.6"/><circle fill="#73C298" cx="288" cy="63.9" r="9"/><circle fill="#9ED4AE" cx="284.9" cy="60.8" r="2.2"/><path fill="#2FA480" d="M291.7 55.7c.5 1.1.8 2.4.8 3.7 0 5-4 9-9 9-1.3 0-2.6-.3-3.7-.8 1.4 3.1 4.5 5.3 8.2 5.3 5 0 9-4 9-9 0-3.7-2.2-6.8-5.3-8.2z"/><rect x="328.5" y="23.8" fill="#2FA480" width="4.5" height="35.6"/><circle fill="#73C298" cx="324" cy="59.4" r="9"/><circle fill="#9ED4AE" cx="320.8" cy="56.2" r="2.2"/><path fill="#2FA480" d="M327.7 51.2c.5 1.1.8 2.4.8 3.7 0 5-4 9-9 9-1.3 0-2.6-.3-3.7-.8 1.4 3.1 4.5 5.3 8.2 5.3 5 0 9-4 9-9 0-3.7-2.2-6.8-5.3-8.2z"/><polygon fill="#D57528" points="351,90.9 351,54.9 346.5,55.5 346.5,90.9"/><circle fill="#F59831" cx="342" cy="90.9" r="9"/><circle fill="#FAB155" cx="338.8" cy="87.8" r="2.2"/><path fill="#D57528" d="M345.7 82.7c.5 1.1.8 2.4.8 3.7 0 5-4 9-9 9-1.3 0-2.6-.3-3.7-.8 1.4 3.1 4.5 5.3 8.2 5.3 5 0 9-4 9-9 0-3.7-2.2-6.8-5.3-8.2z"/><polygon fill="#2FA480" points="292.5,24.3 292.5,36.9 333,31.8 333,19.3"/><polygon fill="#DAD7D5" points="207,76.5 207,72 211.5,76.5 216,72 220.5,76.5 225,72 229.5,76.5 234,72 238.5,76.5 243,72 247.5,76.5 252,72 256.5,76.5 261,72 265.5,76.5 270,72 274.5,76.5 279,72 279,76.5"/><g fill="#BEBDBC"><polygon points="220.5,76.5 229.5,76.5 225,72"/><polygon points="229.5,76.5 238.5,76.5 234,72"/><polygon points="211.5,76.5 220.5,76.5 216,72"/><polygon points="207,76.5 211.5,76.5 207,72"/><polygon points="238.5,76.5 247.5,76.5 243,72"/><polygon points="261,72 261,72 256.5,76.5 261,76.5"/><polygon points="247.5,76.5 256.5,76.5 252,72"/></g><path fill="#DAD7D5" d="M63 81c-34.8 0-63 28.2-63 63s28.2 63 63 63 63-28.2 63-63-28.2-63-63-63zm-33.3 63.5c-5.7-1.8-8.8-7.9-6.9-13.6 1.8-5.7 7.9-8.8 13.6-6.9 5.7 1.8 8.8 7.9 6.9 13.6-1.8 5.7-7.9 8.8-13.6 6.9zm23.5 31.3c-3.5 4.8-10.3 5.9-15.1 2.4s-5.9-10.3-2.4-15.1c3.5-4.8 10.3-5.9 15.1-2.4 4.9 3.6 5.9 10.3 2.4 15.1zm9.8-52.5c-6 0-10.8-4.8-10.8-10.8s4.8-10.8 10.8-10.8 10.8 4.8 10.8 10.8-4.8 10.8-10.8 10.8zm24.9 54.9c-4.8 3.5-11.6 2.4-15.1-2.4s-2.4-11.6 2.4-15.1 11.6-2.4 15.1 2.4c3.5 4.9 2.4 11.6-2.4 15.1zm8.4-33.7c-5.7 1.8-11.8-1.3-13.6-6.9-1.8-5.7 1.3-11.8 6.9-13.6 5.7-1.8 11.8 1.3 13.6 6.9 1.9 5.7-1.2 11.8-6.9 13.6z"/><path fill="#ABABAB" d="M63 90c-29.8 0-54 24.2-54 54s24.2 54 54 54 54-24.2 54-54-24.2-54-54-54zm-33.3 54.5c-5.7-1.8-8.8-7.9-6.9-13.6 1.8-5.7 7.9-8.8 13.6-6.9 5.7 1.8 8.8 7.9 6.9 13.6-1.8 5.7-7.9 8.8-13.6 6.9zm23.5 31.3c-3.5 4.8-10.3 5.9-15.1 2.4s-5.9-10.3-2.4-15.1c3.5-4.8 10.3-5.9 15.1-2.4 4.9 3.6 5.9 10.3 2.4 15.1zm9.8-52.5c-6 0-10.8-4.8-10.8-10.8s4.8-10.8 10.8-10.8 10.8 4.8 10.8 10.8-4.8 10.8-10.8 10.8zm24.9 54.9c-4.8 3.5-11.6 2.4-15.1-2.4s-2.4-11.6 2.4-15.1 11.6-2.4 15.1 2.4c3.5 4.9 2.4 11.6-2.4 15.1zm8.4-33.7c-5.7 1.8-11.8-1.3-13.6-6.9-1.8-5.7 1.3-11.8 6.9-13.6 5.7-1.8 11.8 1.3 13.6 6.9 1.9 5.7-1.2 11.8-6.9 13.6z"/><path fill="#838583" d="M13.5 148.5c0-29.8 24.2-54 54-54 13.8 0 26.3 5.2 35.9 13.6-9.9-11.1-24.3-18.1-40.4-18.1-29.8 0-54 24.2-54 54 0 16.1 7 30.5 18.1 40.4-8.4-9.6-13.6-22.1-13.6-35.9z"/><path fill="#DAD7D5" d="M63 98.1c-8 0-14.4 6.4-14.4 14.4s6.4 14.4 14.4 14.4 14.4-6.4 14.4-14.4-6.4-14.4-14.4-14.4zm0 25.2c-6 0-10.8-4.8-10.8-10.8s4.8-10.8 10.8-10.8 10.8 4.8 10.8 10.8-4.8 10.8-10.8 10.8z"/><path fill="#DAD7D5" d="M37.5 120.6c-7.6-2.5-15.7 1.7-18.1 9.2-2.5 7.6 1.7 15.7 9.2 18.1 7.6 2.5 15.7-1.7 18.1-9.2 2.5-7.5-1.6-15.7-9.2-18.1zm5.8 17c-1.8 5.7-7.9 8.8-13.6 6.9-5.7-1.8-8.8-7.9-6.9-13.6 1.8-5.7 7.9-8.8 13.6-6.9 5.7 1.8 8.8 7.9 6.9 13.6z"/><path fill="#DAD7D5" d="M52.9 157.8c-6.4-4.7-15.4-3.2-20.1 3.2-4.7 6.4-3.2 15.4 3.2 20.1 6.4 4.7 15.4 3.2 20.1-3.2 4.7-6.4 3.3-15.4-3.2-20.1zm.3 18c-3.5 4.8-10.3 5.9-15.1 2.4s-5.9-10.3-2.4-15.1c3.5-4.8 10.3-5.9 15.1-2.4 4.9 3.6 5.9 10.3 2.4 15.1z"/><path fill="#DAD7D5" d="M93.2 161c-4.7-6.4-13.7-7.9-20.1-3.2-6.4 4.7-7.9 13.7-3.2 20.1 4.7 6.4 13.7 7.9 20.1 3.2 6.4-4.6 7.8-13.6 3.2-20.1zm-5.3 17.2c-4.8 3.5-11.6 2.4-15.1-2.4s-2.4-11.6 2.4-15.1 11.6-2.4 15.1 2.4c3.5 4.9 2.4 11.6-2.4 15.1z"/><path fill="#DAD7D5" d="M106.7 129.8c-2.5-7.6-10.6-11.7-18.1-9.2-7.6 2.5-11.7 10.6-9.2 18.1 2.5 7.6 10.6 11.7 18.1 9.2 7.5-2.4 11.6-10.5 9.2-18.1zm-10.4 14.7c-5.7 1.8-11.8-1.3-13.6-6.9-1.8-5.7 1.3-11.8 6.9-13.6 5.7-1.8 11.8 1.3 13.6 6.9 1.9 5.7-1.2 11.8-6.9 13.6z"/><circle fill="#838583" cx="63" cy="144" r="9"/><circle fill="#595B5C" cx="64.8" cy="145.8" r="4.5"/><circle fill="#ABABAB" cx="63" cy="144" r="4.5"/><circle fill="#838583" cx="63" cy="144" r="1.5"/><defs><circle id="a" cx="63" cy="144" r="36"/></defs><clipPath id="b"><use xlink:href="#a" overflow="visible"/></clipPath><path clip-path="url(#b)" fill="#171B20" d="M63 92.7c-28.3 0-51.3 23-51.3 51.3s23 51.3 51.3 51.3 51.3-23 51.3-51.3-23-51.3-51.3-51.3zm29.1 78.7c.5-2.8-.1-5.8-1.9-8.3-3.5-4.8-10.3-5.9-15.1-2.4-4.8 3.5-5.9 10.3-2.4 15.1 1.8 2.5 4.5 4 7.3 4.3-5.2 2.5-11 3.8-17.1 3.8s-11.9-1.4-17.1-3.8c2.8-.4 5.5-1.9 7.3-4.3 3.5-4.8 2.4-11.6-2.4-15.1s-11.6-2.4-15.1 2.4c-1.8 2.5-2.4 5.5-1.9 8.3-6.6-7.1-10.7-16.8-10.7-27.4 0-1.7.1-3.4.3-5.1 1.2 2.6 3.5 4.6 6.4 5.6 5.7 1.8 11.8-1.3 13.6-6.9 1.8-5.7-1.3-11.8-6.9-13.6-2.9-1-6-.6-8.5.8 5.7-10.3 15.7-17.8 27.7-20.1-2.1 2-3.4 4.7-3.4 7.8 0 6 4.8 10.8 10.8 10.8s10.8-4.8 10.8-10.8c0-3.1-1.3-5.8-3.4-7.8 11.9 2.2 22 9.8 27.7 20.1-2.5-1.4-5.5-1.7-8.5-.8-5.7 1.8-8.8 7.9-6.9 13.6 1.8 5.7 7.9 8.8 13.6 6.9 2.9-.9 5.2-3 6.4-5.6.2 1.7.3 3.3.3 5.1 0 10.6-4.1 20.3-10.9 27.4z"/><rect x="301.5" y="110.7" fill="#C8AD80" width="18" height="9"/><rect x="279" y="117" fill="#C8AD80" width="31.5" height="45"/><rect x="310.5" y="117" fill="#97805D" width="40.5" height="45"/><rect x="315" y="121.5" fill="#AC956E" width="22.5" height="13.5"/><rect x="317.7" y="124.2" fill="#BEBDBC" width="17.1" height="8.1"/><polygon fill="#7F684F" points="310.5,117 319.5,108 360,108 351,117"/><polygon fill="#AC956E" points="310.5,117 301.5,108 270,108 279,117"/><polygon fill="#7F684F" points="288,117 279,108 279,117"/><path fill="#fff" d="M99 72v117c0 9.9 8.1 18 18 18h144v-126h-18v-9h-144z"/><path fill="#DAD7D5" d="M243 76.5v112.5c0 9.9 8.1 18 18 18s18-8.1 18-18v-112.5h-36z"/><path fill="#BEBDBC" d="M243 76.5v112.5c0 9.9 8.1 18 18 18v-130.5h-18z"/><rect x="108" y="81" fill="#85C4CF" width="126" height="18"/><rect x="108" y="108" fill="#4CADC1" width="72" height="36"/><rect x="189" y="108" fill="#838583" width="45" height="9"/><rect x="189" y="121.5" fill="#838583" width="27" height="9"/><g fill="#BEBDBC"><rect x="126" y="153" width="108" height="4.5"/><rect x="108" y="162" width="126" height="4.5"/><rect x="108" y="171" width="126" height="4.5"/><rect x="108" y="180" width="126" height="4.5"/><rect x="108" y="189" width="45" height="4.5"/></g><polygon fill="#85C4CF" points="108,144 126,126 126,144"/><polygon fill="#268999" points="126,126 144,144 126,144"/><polygon fill="#85C4CF" points="135,144 162,117 162,144"/><polygon fill="#268999" points="162,117 180,135 180,144 162,144"/><path fill="#BEBDBC" d="M113.6 157.5l-.4-1.4h-2.5l-.4 1.4h-2.3l2.5-7.7h2.8l2.5 7.7h-2.2zm-.8-3.2l-.3-1.3c-.1-.3-.2-.6-.3-1.1-.1-.4-.2-.8-.2-1 0 .2-.1.5-.2.9l-.6 2.4h1.6z"/><path fill="#BEBDBC" d="M120.5 157.5l-.4-.8c-.3.3-.6.6-.8.7-.3.1-.7.2-1.1.2-.6 0-1-.2-1.3-.5-.3-.3-.5-.8-.5-1.4 0-.6.2-1.1.7-1.4.4-.3 1.1-.5 1.9-.5h1v-.1c0-.5-.2-.7-.7-.7-.4 0-1 .1-1.7.4l-.6-1.4c.7-.4 1.6-.5 2.6-.5.8 0 1.4.2 1.8.6.4.4.6.9.6 1.6v3.9h-1.5zm-1.6-1.4c.2 0 .5-.1.6-.2.2-.2.3-.4.3-.6v-.5h-.5c-.7 0-1 .3-1 .7 0 .5.2.6.6.6z"/><circle fill="#85C4CF" cx="139.5" cy="121.5" r="4.5"/><path fill="#6E78B1" d="M220.5 162c-7.5 0-13.5 6-13.5 13.5v18c0 7.5 6 13.5 13.5 13.5h85.5v-45h-85.5z"/><path fill="#959EC8" d="M225 193.5v-18c0-7.5 6-13.5 13.5-13.5h-9c-7.5 0-13.5 6-13.5 13.5v18c0 7.5 6 13.5 13.5 13.5h9c-7.5 0-13.5-6-13.5-13.5z"/><path fill="#959EC8" d="M279 193.5v-18c0-7.5 6-13.5 13.5-13.5h-9c-7.5 0-13.5 6-13.5 13.5v18c0 7.5 6 13.5 13.5 13.5h9c-7.5 0-13.5-6-13.5-13.5z"/><rect x="297" y="171" fill="#fff" width="67.5" height="27"/><path fill="#85C4CF" d="M301.5 162c-7.5 0-13.5 6-13.5 13.5v18c0 7.5 6 13.5 13.5 13.5h67.5v-9h-67.5c-2.5 0-4.5-2-4.5-4.5v-18c0-2.5 2-4.5 4.5-4.5h67.5v-9h-67.5z"/><rect x="292.5" y="171" fill="#DAD7D5" width="72" height="9"/><path fill="#55598B" d="M301.5 162c-7.5 0-13.5 6-13.5 13.5v18c0 7.5 6 13.5 13.5 13.5h67.5v-9h-67.5c-2.5 0-4.5-2-4.5-4.5v-18c0-2.5 2-4.5 4.5-4.5h67.5v-9h-67.5z"/><rect x="265.5" y="72" transform="matrix(.835 .55 -.55 .835 111.239 -128.646)" fill="#fff" width="9" height="98.1"/><rect x="210.1" y="39.6" transform="matrix(.707 .707 -.707 .707 107.629 -171.638)" fill="#fff" width="101.8" height="9"/><rect x="234" y="162" fill="#DAD7D5" width="18" height="36"/><rect x="234" y="162" fill="#fff" width="9" height="36"/><rect x="198" y="198" fill="#DC613A" width="18" height="9"/><rect x="225" y="198" fill="#DC613A" width="18" height="9"/><rect x="243" y="198" fill="#B34726" width="45" height="9"/><rect x="216" y="198" fill="#F28055" width="9" height="9"/><path fill="#BEBDBC" d="M234 173.2c2.3 4.1 6.7 6.8 11.7 6.8 2.3 0 4.4-.6 6.3-1.6v-16.4h-18v11.2z"/><path fill="#DAD7D5" d="M234 173.2c1.9 3.3 5.1 5.7 9 6.5v-17.7h-9v11.2z"/><circle fill="#DC613A" cx="243" cy="162" r="13.5"/><circle fill="#B34726" cx="243" cy="162" r="9"/><path fill="#87351E" d="M238.5 166.5c0-5 4-9 9-9 1.3 0 2.6.3 3.7.8-1.4-3.1-4.5-5.3-8.2-5.3-5 0-9 4-9 9 0 3.7 2.2 6.8 5.3 8.2-.5-1.1-.8-2.4-.8-3.7z"/><circle fill="#DC613A" cx="297" cy="80.1" r="13.5"/><circle fill="#B34726" cx="297" cy="80.1" r="9"/><path fill="#87351E" d="M292.5 84.6c0-5 4-9 9-9 1.3 0 2.6.3 3.7.8-1.4-3.1-4.5-5.3-8.2-5.3-5 0-9 4-9 9 0 3.7 2.2 6.8 5.3 8.2-.5-1.1-.8-2.4-.8-3.7z"/><g fill="#B34726"><circle cx="216" cy="4.5" r="4.5"/><circle cx="229.5" cy="4.5" r="4.5"/><rect x="216" width="13.5" height="27"/><rect x="211.5" y="4.5" width="22.5" height="22.5"/></g><path fill="#DC613A" d="M211.5 4.5v22.5h4.5v-27c-2.5 0-4.5 2-4.5 4.5z"/><path fill="#DC613A" d="M225 18c-19.9 0-36 16.1-36 36h72c0-19.9-16.1-36-36-36z"/><path fill="#B34726" d="M225 18c-3.1 0-6.1.4-9 1.1 15.5 4 27 18.1 27 34.9h18c0-19.9-16.1-36-36-36z"/><circle fill="#F28055" cx="211.5" cy="31.5" r="4.5"/><path fill="#DC613A" d="M211.5 14.8s-.3 5.4-3.8 7.7h3.8v-7.7z"/><path fill="#87351E" d="M225 15.3c-1 0-1.8-.8-1.8-1.8v-4.5c0-1 .8-1.8 1.8-1.8s1.8.8 1.8 1.8v4.5c0 1-.8 1.8-1.8 1.8z"/><path fill="#87351E" d="M219.6 15.3c-1 0-1.8-.8-1.8-1.8v-4.5c0-1 .8-1.8 1.8-1.8s1.8.8 1.8 1.8v4.5c0 1-.8 1.8-1.8 1.8z"/><path fill="#87351E" d="M230.4 15.3c-1 0-1.8-.8-1.8-1.8v-4.5c0-1 .8-1.8 1.8-1.8s1.8.8 1.8 1.8v4.5c0 1-.8 1.8-1.8 1.8z"/><rect x="279" y="117" fill="#AC956E" width="9" height="45"/><g fill="#fff"><polygon points="99,72 99,67.5 103.5,72 108,67.5 112.5,72 117,67.5 121.5,72 126,67.5 130.5,72 135,67.5 139.5,72 144,67.5 148.5,72 153,67.5 157.5,72 162,67.5 166.5,72 171,67.5 171,72"/><polygon points="171,72 171,67.5 175.5,72 180,67.5 184.5,72 189,67.5 193.5,72 198,67.5 202.5,72 207,67.5 211.5,72 216,67.5 220.5,72 225,67.5 229.5,72 234,67.5 238.5,72 243,67.5 243,72"/></g><path fill="#BEBDBC" d="M333 160c0 1.1-.9 2-2 2h-13.1c-1.1 0-2-.9-2-2v-14c0-1.1.9-2 2-2h13.1c1.1 0 2 .9 2 2v14z"/><path fill="#fff" d="M319.5 160c0 1.1-.9 2-2 2h-9.5c-1.1 0-2-.9-2-2v-14c0-1.1.9-2 2-2h9.5c1.1 0 2 .9 2 2v14z"/><circle fill="#3A3E41" cx="312.8" cy="153" r="1.7"/><circle fill="#3A3E41" cx="323.9" cy="150.2" r="1.7"/><circle fill="#3A3E41" cx="323.9" cy="156.7" r="1.7"/><circle fill="#3A3E41" cx="328.6" cy="150.2" r="1.7"/><circle fill="#3A3E41" cx="328.6" cy="156.7" r="1.7"/></svg>