<svg xmlns="http://www.w3.org/2000/svg" viewBox="0 0 110 110"><circle fill="#D7A628" cx="55" cy="55" r="55"/><path fill="#F2C342" d="M55 0c-30.4 0-55 24.6-55 55s24.6 55 55 55v-20h-13l-.8 7.8c-18.1-5.8-31.2-22.8-31.2-42.8 0-24.9 20.1-45 45-45s45 20.1 45 45c0 20-13.1 37-31.2 42.8l1 10.1c23.2-6.4 40.2-27.7 40.2-52.9 0-30.4-24.6-55-55-55z"/><path fill="#D7A628" d="M57 50v-27.4c-.6.3-1.3.4-2 .4s-1.4-.2-2-.4v27.4c0 1.1.9 2 2 2s2-.9 2-2zM68.8 97.8c18.1-5.8 31.2-22.8 31.2-42.8 0-24.9-20.1-45-45-45s-45 20.1-45 45c0 20 13.1 37 31.2 42.8l.8-7.8.5-5 .5-5h2l-10-15 17.2-42.9c-1.3-.9-2.2-2.4-2.2-4.1 0-2.8 2.2-5 5-5s5 2.2 5 5c0 1.7-.9 3.2-2.2 4.1l17.2 42.9-10 15h2l.5 5h-12.5v5h13l.8 7.8z"/><path fill="#FFE171" d="M55 52c-1.1 0-2-.9-2-2v-27.4c.6.3 1.3.4 2 .4v-10c-2.8 0-5 2.2-5 5 0 1.7.9 3.2 2.2 4.1l-17.2 42.9 10 15h10v-28z"/><path fill="#F2C342" d="M55 80h-12l-.5 5h12.5z"/><path fill="#BF912C" d="M68 90h-13v20c5.1 0 10.1-.7 14.8-2l-1-10.1-.8-7.9z"/><path fill="#F2C342" d="M57 22.6v27.4c0 1.1-.9 2-2 2v28h10l10-15-17.2-42.9c1.3-.9 2.2-2.4 2.2-4.1 0-2.8-2.2-5-5-5v10c.7 0 1.4-.2 2-.4z"/><path fill="#FFE171" d="M42.5 85l-.5 5h13v-5z"/><path fill="#BF912C" d="M55 85h12.5l-.5-5h-12z"/></svg>
