<svg xmlns="http://www.w3.org/2000/svg" viewBox="0 0 110 110"><circle fill="#54588A" cx="55" cy="55" r="55"/><path fill="#6E77B0" d="M55 0c-30.4 0-55 24.6-55 55 0 17.1 7.8 32.3 20 42.4v-14.1c-6.2-7.8-10-17.6-10-28.3 0-24.9 20.1-45 45-45s45 20.1 45 45c0 10.7-3.8 20.5-10 28.3v14.2c12.2-10.1 20-25.3 20-42.4 0-30.5-24.6-55.1-55-55.1z"/><path fill="#54588A" d="M35 30h40c8.3 0 15 6.7 15 15v38.3c6.2-7.7 10-17.6 10-28.3 0-24.9-20.1-45-45-45s-45 20.1-45 45c0 10.7 3.8 20.5 10 28.3v-38.3c0-8.3 6.7-15 15-15z"/><path fill="#41456E" d="M90 45c0-8.3-6.7-15-15-15h-40c-8.3 0-15 6.7-15 15v52.4c1.6 1.3 3.3 2.5 5 3.7v-51.1h60v51.1c1.7-1.1 3.4-2.3 5-3.7v-52.4z"/><path fill="#6E77B0" d="M85 50l-54.3 54.3c7.3 3.7 15.6 5.7 24.3 5.7 11.1 0 21.4-3.3 30-8.9v-51.1z"/><path fill="#959EC8" d="M85 50h-60v51.1c1.8 1.2 3.7 2.3 5.7 3.2l54.3-54.3z"/></svg>
